<svg fill="none" xmlns="http://www.w3.org/2000/svg" viewBox="0 0 87 86"><path d="M37.4 43.4c0 6.3-5.1 11.4-11.4 11.4-2.9 0-5.5-1.1-7.5-2.8-2.4-2.1-3.9-5.1-3.9-8.5 0-6.3 5.1-11.4 11.4-11.4 6.3 0 11.4 5 11.4 11.3ZM51.7 78.8c-2.4-12-13-21-25.7-21-10 0-18.7 5.6-23.1 13.8M76.6 26.9c0 7.6-6.1 13.7-13.7 13.7-3.5 0-6.6-1.3-9-3.4-2.9-2.5-4.7-6.2-4.7-10.3 0-7.6 6.1-13.7 13.7-13.7s13.7 6.2 13.7 13.7ZM81 50c-5.1-3.6-11.3-5.7-18-5.7-9.7 0-18.4 4.4-24.2 11.2M13.8 6v17.1h21l7.6 5.9V6H13.8ZM36.5 13.2H19.9M28.2 16.5h-8.3" stroke="#000" stroke-width="2" stroke-miterlimit="10"/></svg>