<svg fill="none" xmlns="http://www.w3.org/2000/svg" viewBox="0 0 86 86"><path d="M48 47.7v16.6c0 .9-.7 1.6-1.6 1.6H10.5c-.9 0-1.6-.7-1.6-1.6V11.8c0-.9.7-1.6 1.6-1.6h35.9c.9 0 1.6.7 1.6 1.6v22.9" stroke="#000" stroke-width="2" stroke-miterlimit="10"/><path d="M20.1 59c0-.6 17-18.4 17-18.4l6.3 5.7 29.3-31.7M82.1 54.5c0 7.6-6.1 13.7-13.7 13.7-3.5 0-6.6-1.3-9-3.4-2.9-2.5-4.7-6.2-4.7-10.3 0-7.6 6.1-13.7 13.7-13.7s13.7 6.1 13.7 13.7ZM58.7 64.1 44.1 78.8M15.8 23h19.7M15.8 28.4h19.7" stroke="#000" stroke-width="2" stroke-miterlimit="10"/><path d="M59.4 54.5c0-4.9 4-9 9-9" stroke="#000" stroke-width="2" stroke-miterlimit="10"/></svg>