<svg fill="none" xmlns="http://www.w3.org/2000/svg" viewBox="0 0 91 91"><path d="M52.02 20.54h29.848c.668 0 1.225.559 1.225 1.229v44.653c0 .67-.557 1.228-1.225 1.228H2.462a1.237 1.237 0 0 1-1.225-1.228V21.769c0-.67.557-1.228 1.225-1.228h29.067M50.016 67.65H34.313V78.7h15.703V67.65ZM59.037 78.701H25.292v4.69h33.745V78.7Z" stroke="#000" stroke-width="2" stroke-miterlimit="10"/><path d="M42.109 53.25c5.905 0 10.691-4.799 10.691-10.718 0-5.918-4.786-10.716-10.691-10.716-5.905 0-10.691 4.798-10.691 10.716 0 5.919 4.786 10.717 10.691 10.717ZM20.838 67.65c4.566-6.921 12.361-11.498 21.271-11.498 8.798 0 16.483 4.465 21.049 11.275M34.09 13.954H50.24c1.002 0 1.782.782 1.782 1.786v7.145c0 1.005-.78 1.786-1.782 1.786H34.091a1.761 1.761 0 0 1-1.782-1.786V15.74c0-1.004.78-1.786 1.782-1.786Z" stroke="#000" stroke-width="2" stroke-miterlimit="10"/><path d="M39.102 22.327a3.01 3.01 0 0 0 3.007-3.014 3.01 3.01 0 0 0-3.007-3.014 3.01 3.01 0 0 0-3.007 3.014 3.01 3.01 0 0 0 3.007 3.014Z" stroke="#000" stroke-width="2" stroke-miterlimit="10"/></svg>