<svg fill="none" xmlns="http://www.w3.org/2000/svg" viewBox="0 0 33 34"><path clip-rule="evenodd" d="M16.102 32.518c8.606 0 15.582-6.976 15.582-15.581 0-8.606-6.976-15.582-15.582-15.582C7.497 1.355.521 8.331.521 16.937c0 8.605 6.976 15.581 15.581 15.581Z" stroke="#367BF5"/><path fill-rule="evenodd" clip-rule="evenodd" d="M16.616 25.605h-.004c-1.55 0-3.074-.39-4.428-1.127l-4.911 1.288 1.314-4.801a9.248 9.248 0 0 1-1.237-4.632c.002-5.109 4.159-9.265 9.266-9.265a9.205 9.205 0 0 1 6.554 2.718 9.21 9.21 0 0 1 2.711 6.554c-.002 5.108-4.157 9.263-9.265 9.265ZM12.412 22.8l.281.167a7.69 7.69 0 0 0 3.92 1.074h.003c4.244 0 7.699-3.455 7.7-7.701.002-2.058-.799-3.993-2.253-5.448a7.648 7.648 0 0 0-5.444-2.259c-4.248 0-7.703 3.454-7.704 7.7 0 1.456.406 2.873 1.177 4.099l.183.291-.778 2.842 2.915-.765Zm8.871-4.256c-.057-.097-.212-.155-.443-.27-.232-.117-1.37-.677-1.582-.754-.212-.077-.367-.116-.521.116-.154.232-.598.753-.733.908-.135.154-.27.173-.502.057-.231-.115-.977-.36-1.861-1.149-.688-.614-1.153-1.372-1.288-1.603-.135-.232-.015-.357.101-.473.104-.104.232-.27.348-.405.115-.136.154-.232.231-.387.077-.154.039-.29-.02-.405-.057-.116-.52-1.256-.713-1.72-.188-.45-.379-.39-.52-.397a9.163 9.163 0 0 0-.445-.008.85.85 0 0 0-.617.29c-.212.232-.81.792-.81 1.931 0 1.14.83 2.24.945 2.395.116.155 1.633 2.493 3.955 3.496.552.238.983.38 1.32.487.554.177 1.059.152 1.458.092.445-.066 1.37-.56 1.563-1.1.192-.541.192-1.005.134-1.101Z" fill="#367BF5"/></svg>