<svg fill="none" xmlns="http://www.w3.org/2000/svg" viewBox="0 0 33 34"><path clip-rule="evenodd" d="M16.582 32.518c8.605 0 15.581-6.976 15.581-15.581 0-8.606-6.976-15.582-15.581-15.582C7.976 1.355 1 8.331 1 16.937c0 8.605 6.976 15.581 15.582 15.581Z" stroke="#367BF5"/><path d="M26.435 21.673a1.404 1.404 0 0 0-.069-.134c-.355-.643-1.032-1.433-2.032-2.37l-.021-.021-.01-.01-.012-.011h-.01c-.454-.436-.742-.73-.862-.88-.22-.286-.27-.575-.15-.869.086-.221.405-.689.958-1.404.291-.379.522-.683.692-.911 1.227-1.645 1.76-2.695 1.596-3.153l-.064-.107c-.042-.064-.152-.123-.33-.177-.177-.053-.404-.062-.68-.026l-3.064.02a.394.394 0 0 0-.213.006l-.139.033-.053.026-.042.033a.474.474 0 0 0-.117.112.74.74 0 0 0-.107.188c-.333.865-.712 1.669-1.138 2.412-.263.444-.504.828-.724 1.153-.22.325-.404.565-.553.718a3.865 3.865 0 0 1-.404.37c-.12.093-.213.133-.277.118a7.71 7.71 0 0 1-.18-.043.71.71 0 0 1-.24-.262c-.06-.111-.101-.25-.123-.419a4.639 4.639 0 0 1-.037-.434 9.054 9.054 0 0 1 .006-.515c.007-.221.01-.371.01-.45 0-.272.006-.566.016-.885.01-.318.02-.57.027-.755.007-.186.01-.383.01-.59 0-.208-.012-.37-.037-.488a1.68 1.68 0 0 0-.111-.343.576.576 0 0 0-.218-.258 1.224 1.224 0 0 0-.357-.144c-.376-.086-.855-.133-1.436-.14-1.32-.014-2.167.072-2.543.258a1.435 1.435 0 0 0-.404.321c-.128.158-.146.243-.054.258.426.064.727.217.905.46l.064.13c.05.092.099.257.149.493.05.235.081.496.095.782.036.522.036.969 0 1.34-.035.372-.069.662-.1.87a1.748 1.748 0 0 1-.272.739.182.182 0 0 1-.053.053.792.792 0 0 1-.288.054c-.099 0-.22-.05-.361-.15a2.565 2.565 0 0 1-.442-.413 5.512 5.512 0 0 1-.516-.734c-.191-.315-.39-.687-.596-1.115l-.17-.312a26.93 26.93 0 0 1-.436-.873 16.94 16.94 0 0 1-.49-1.11.707.707 0 0 0-.255-.343l-.053-.033a.727.727 0 0 0-.17-.09 1.124 1.124 0 0 0-.245-.07l-2.915.02c-.298 0-.5.069-.607.205l-.042.064a.35.35 0 0 0-.032.172c0 .078.021.175.064.29a35.49 35.49 0 0 0 1.388 2.916c.5.936.935 1.69 1.303 2.262.37.572.745 1.112 1.128 1.62.383.507.637.832.76.975.125.143.223.25.293.322l.266.257c.17.171.42.377.75.616.33.24.696.476 1.096.708.401.233.867.422 1.4.569.531.146 1.05.205 1.553.177h1.224c.248-.022.436-.1.564-.236l.042-.054a.714.714 0 0 0 .08-.198c.024-.09.037-.188.037-.295a3.556 3.556 0 0 1 .069-.831c.053-.247.113-.432.18-.558a1.37 1.37 0 0 1 .41-.471.682.682 0 0 1 .085-.038c.17-.057.371-.002.602.166.23.168.447.376.649.622.202.247.445.524.729.831.284.308.532.536.744.687l.213.128c.142.086.327.165.554.236.226.072.425.09.595.054l2.724-.043c.27 0 .479-.045.628-.134.149-.09.237-.188.266-.295a.836.836 0 0 0 .005-.365 1.355 1.355 0 0 0-.075-.284Z" fill="#367BF5"/></svg>