<svg fill="none" xmlns="http://www.w3.org/2000/svg" viewBox="0 0 34 34"><path clip-rule="evenodd" d="M17.067 1.355c8.606 0 15.582 6.976 15.582 15.582 0 8.605-6.976 15.581-15.582 15.581-8.605 0-15.581-6.976-15.581-15.581 0-8.606 6.976-15.582 15.581-15.582Z" stroke="#367BF5"/><path fill-rule="evenodd" clip-rule="evenodd" d="M21.219 14.962c-.076-.616-.265-1.1-.601-1.527-.437-.552-.994-.882-1.82-1.078-.538-.13-.755-.115-.95.062-.181.167-.217.5-.078.717.097.157.21.213.522.275.416.076.704.175.966.325.555.32.814.823.841 1.635.013.381.046.499.18.634.247.247.686.2.872-.097.069-.111.08-.16.086-.419.005-.16-.002-.399-.018-.527Z" fill="#367BF5"/><path fill-rule="evenodd" clip-rule="evenodd" d="M23.394 15.656c-.11-1.886-.847-3.404-2.168-4.471a6.11 6.11 0 0 0-2.629-1.214c-.36-.071-1.026-.13-1.14-.096a.7.7 0 0 0-.327.252c-.072.115-.088.37-.027.518.099.246.283.333.797.379.794.069 1.612.348 2.23.76a4.677 4.677 0 0 1 1.63 1.868c.314.649.507 1.584.502 2.421-.002.303.045.474.166.6a.56.56 0 0 0 .689.106c.262-.138.323-.38.277-1.123ZM25.801 22.92a2.073 2.073 0 0 0-.184-.37c-.388-.584-2.47-2.214-3.51-2.747-.593-.304-1.032-.406-1.358-.31-.35.098-.535.261-1.123.991-.237.293-.48.567-.544.61-.16.11-.474.2-.695.2-.514-.003-1.445-.336-2.162-.773-.557-.339-1.27-.945-1.817-1.546-.646-.705-1.086-1.327-1.433-2.03-.45-.902-.563-1.453-.376-1.857.046-.101.108-.21.136-.243.027-.03.316-.268.636-.527.628-.499.73-.613.846-.954.147-.435.108-.878-.12-1.325a18.471 18.471 0 0 0-.966-1.555c-.44-.628-1.534-1.971-1.752-2.153-.394-.32-.898-.376-1.455-.16-.587.228-1.688 1.115-2.159 1.734-.424.56-.587.958-.612 1.481-.021.431.016.61.243 1.161 1.78 4.324 4.438 7.777 8.088 10.518 1.906 1.432 3.884 2.522 5.935 3.268 1.196.434 1.716.456 2.328.098.258-.154.898-.81 1.255-1.287.59-.795.809-1.161.87-1.454.043-.2.01-.548-.07-.77Z" fill="#367BF5"/><path fill-rule="evenodd" clip-rule="evenodd" d="M25.608 16.09a8.59 8.59 0 0 0-.593-2.919c-.37-.96-.744-1.586-1.451-2.433-.668-.794-1.188-1.248-2.01-1.753-1.15-.703-2.547-1.168-4.114-1.364-.534-.069-.655-.064-.819.046-.317.207-.313.724.006.928.105.065.199.088.626.144a11.14 11.14 0 0 1 1.578.308c1.963.537 3.472 1.633 4.481 3.261.845 1.357 1.195 2.714 1.145 4.447-.017.586-.004.69.085.83.172.262.624.314.856.097.145-.133.172-.233.2-.734.014-.262.017-.648.01-.859Z" fill="#367BF5"/></svg>