<svg fill="none" xmlns="http://www.w3.org/2000/svg" viewBox="0 0 34 34"><path clip-rule="evenodd" d="M16.984 32.518c8.605 0 15.581-6.976 15.581-15.581 0-8.606-6.976-15.582-15.581-15.582-8.606 0-15.582 6.976-15.582 15.582 0 8.605 6.976 15.581 15.582 15.581Z" stroke="#367BF5"/><path fill-rule="evenodd" clip-rule="evenodd" d="M9.065 13.105a4.087 4.087 0 0 1 4.087-4.087h8.174a4.087 4.087 0 0 1 4.087 4.087v8.174a4.087 4.087 0 0 1-4.087 4.087h-8.174a4.087 4.087 0 0 1-4.087-4.087v-8.174Zm8.174 6.812a2.725 2.725 0 1 0 0-5.45 2.725 2.725 0 0 0 0 5.45Zm5.45-6.812a1.362 1.362 0 1 1-2.725 0 1.362 1.362 0 0 1 2.725 0Z" fill="#367BF5"/></svg>