<svg fill="none" xmlns="http://www.w3.org/2000/svg" viewBox="0 0 140 117"><g clip-path="url(#a)" fill="#000"><path d="M126.756.128c-.579.27-5.253 3.15-9.109 5.614-10.454 6.682-15.336 9.911-21.712 14.367C80.85 30.657 66.25 42.534 54.325 53.951c-3.012 2.884-4.556 4.425-8.863 8.855-.154.16-.27.265-.256.243.009-.026 3.652-6.559 8.097-14.518 4.44-7.959 8.087-14.5 8.1-14.535.027-.07-.353-.093-3.01-.164-.898-.022-2.3-.066-3.11-.092l-1.476-.049-.27.212c-1.875 1.453-6.111 4.88-8.477 6.86-11.917 9.95-23.406 20.992-32.59 31.319-3.962 4.452-6.779 7.853-8.477 10.238C2.016 85.089.836 87.24.341 88.976c-.31 1.064-.412 2.137-.28 2.893.24 1.364 1.288 2.323 3.079 2.804 1.003.265 1.998.345 5.576.42 2.657.057 3.135.022 4.06-.292.888-.309 2.272-1.166 2.851-1.78l.133-.136h-.31c-.168 0-.561-.031-.88-.067-.313-.035-.782-.08-1.039-.093l-.464-.022-.332.181c-.552.3-1.538.769-2.122 1.003-.641.26-1.632.588-1.773.588-.067 0-.23-.133-.487-.394-.332-.335-.416-.455-.61-.848-.345-.71-.42-1.064-.425-1.939 0-.839.067-1.214.403-2.252.561-1.75 1.45-3.357 3.17-5.764 1.804-2.518 3.892-5.004 8.278-9.871 7.695-8.538 15.844-16.713 24.056-24.138 1.38-1.25 3.604-3.22 3.652-3.237.023-.01-5.748 10.388-12.819 23.1-12.5 22.472-12.881 23.143-13.575 24.159-2.729 3.993-5.333 8.25-7.527 12.314a158.71 158.71 0 0 0-2.852 5.675c-.76 1.63-1.88 4.187-1.88 4.298 0 .022.571.053 1.319.066.72.018 1.711.049 2.197.075 1.212.058 3.91.133 3.971.106.031-.013 3.047-5.393 6.708-11.956 7.385-13.242 6.664-12.018 8.725-14.85 5.979-8.214 12.956-16.244 21.199-24.402 14.031-13.89 29.963-26.836 49.849-40.51C115.153 15.198 126.977 7.76 138.01 1.58c.889-.499 1.685-.95 1.769-.998l.155-.097h-.385c-.212 0-.681-.031-1.039-.066-.672-.067-2.202-.12-5.784-.2a388.16 388.16 0 0 1-3.427-.096c-2.543-.089-2.348-.089-2.543.004Z"/><path d="M77.217 57.475c-.093.115-.177.332-.252.64-.04.177-.124.39-.177.473-.067.093-.08.142-.04.124.075-.027.088-.07-.88 2.372-1.46 3.67-2.162 5.41-2.211 5.468-.053.066-3.374 2.791-3.467 2.849-.044.026-.049.013-.017-.067.022-.057.38-.967.8-2.023.42-1.055.995-2.557 1.282-3.334.288-.778.655-1.762.818-2.186.363-.941.478-1.37.443-1.613-.093-.605-.708-.98-2.11-1.28a10.07 10.07 0 0 0-.561-.11c-.022 0-.084.132-.138.295-.99 3.03-3.36 6.718-5.93 9.222-1.127 1.1-2.082 1.776-2.905 2.058-.225.076-.238.076-.207.005.318-.777.888-2.398 1.879-5.331.876-2.588 1.287-3.772 1.711-4.916.186-.495.328-.901.319-.91-.062-.057-2.707-1.351-2.724-1.334-.014.014-.898 3.039-1.964 6.727-1.42 4.898-1.937 6.74-1.919 6.841.04.217.39.897.624 1.206.247.332.628.623.981.76.354.132.938.132 1.336 0 1.105-.376 3.374-2.275 4.93-4.134a24.7 24.7 0 0 0 1.3-1.692c.19-.287.252-.344.182-.176-.022.057-.16.397-.305.764-1.203 3.03-2.552 5.172-4.325 6.863-.633.605-.973.875-3.264 2.58-2.785 2.076-4.413 3.414-5.788 4.757-1.123 1.1-1.72 1.828-2.078 2.548-.186.375-.248.587-.248.888 0 .56.243.773 1.676 1.47 1.486.72 2.171.924 3.117.924.562 0 1.004-.075 1.53-.252 1.663-.565 4.029-2.46 5.457-4.373 1.03-1.382 1.751-2.875 2.459-5.092.77-2.416.955-2.928 1.46-3.953.596-1.228 1.25-2.103 2.498-3.357.663-.671 2.02-1.93 2.047-1.9.013.014-1.508 3.813-2.622 6.538-1.128 2.76-1.72 4.138-3.361 7.862-.575 1.298-.774 1.899-.805 2.429-.022.37-.013.428.084.649.066.137.177.291.266.358.252.194.707.38 1.198.49.49.11 1.61.278 1.64.243.01-.009 1.203-3.374 2.654-7.482a2039.7 2039.7 0 0 1 2.657-7.478c.005-.009.319-.08.695-.159 2.874-.622 5.589-1.855 7.685-3.493 2.348-1.833 4.497-4.797 5.05-6.957.407-1.603.013-2.796-1.15-3.485-.526-.313-.906-.415-1.556-.42-.69-.004-1.044.09-1.791.46-1.026.513-1.54.945-3.618 3.048-1.406 1.426-1.534 1.541-1.384 1.28.283-.49.765-1.505.885-1.863.345-1.056.327-1.926-.062-2.57-.221-.372-.681-.778-1.145-1.017-.522-.269-.606-.3-.66-.234Zm8.216 3.052c.442.274.429.19.15 1.043-1.048 3.193-4.179 6.338-8.42 8.458-.69.344-1.379.658-1.888.857l-.225.088.097-.252c.752-1.89 1.875-3.706 3.286-5.309 1.702-1.934 3.732-3.546 6.142-4.876.239-.137.447-.243.46-.243.013 0 .19.106.398.234ZM63.699 76.662c-.058.309-.34 1.135-.58 1.682-1.459 3.344-4.625 6.489-7.446 7.399-.588.19-.752.225-.752.15 0-.124.288-.963.49-1.445.616-1.426 1.602-2.804 2.964-4.13.99-.966 1.976-1.748 3.272-2.596.535-.354 2.008-1.224 2.065-1.224.013 0 .004.075-.013.164ZM98.27 58.102c-.42.274-.876.544-1.013.592-.239.093-.26.093-.703.027-.57-.084-1.565-.084-2.631 0-.955.075-1.19.128-1.8.42-2.162 1.024-4.086 3.612-4.665 6.271-.133.619-.146 2.111-.022 2.681.31 1.431 1.052 2.69 2.273 3.856.584.557 1.264 1.069 1.689 1.272.672.322 1.393.225 2.202-.296.442-.287.748-.543 1.751-1.47.451-.411.99-.853 1.464-1.193 1.194-.848 1.56-1.17 1.733-1.506.04-.075.314-.389.61-.694.916-.95 1.858-2.12 2.596-3.237l.345-.521-.071-.186a7.77 7.77 0 0 0-.079-.199 4.14 4.14 0 0 0-.288.35c-1.229 1.585-2.98 3.254-4.444 4.235-1.733 1.162-3.104 1.665-4.833 1.775-1.468.093-2.202-.079-2.463-.582a2.043 2.043 0 0 1-.115-.464c-.177-1.193.62-3.14 2.003-4.894.491-.618 1.601-1.71 2.114-2.072.42-.3 1.242-.742 1.375-.742.053 0 .19.323.526 1.246.252.689.482 1.307.509 1.378l.053.124 2.11-2.257c1.158-1.241 2.104-2.28 2.104-2.301 0-.04-1.388-1.922-1.521-2.063-.035-.04-.23.066-.81.45ZM130.236 77.276c-.442.119-.725.384-.95.9-.186.425-.332.933-.938 3.313-1.035 4.068-2.803 10.318-3.834 13.538-.566 1.775-1.49 4.31-2.29 6.294l-.403.993.168.332c.54 1.068 1.809 1.629 2.994 1.325.778-.199 1.508-.778 1.87-1.48.138-.265 1.084-3.193 3.839-11.837l3.657-11.483-.213-.195c-.119-.106-.415-.34-.658-.521-.858-.64-1.65-1.047-2.295-1.184-.403-.08-.637-.08-.947.005ZM42.893 78.009c-1.57 2.72-2.874 4.704-4.82 7.323-1.057 1.422-1.344 1.837-2.396 3.423a72.057 72.057 0 0 1-1.393 2.032c-.845 1.174-1.022 1.448-1.256 1.938-.181.385-.703 1.776-.703 1.873 0 .044 1.424.976 1.578 1.034.107.04.217.008.81-.226 1.53-.61 2.091-.954 3.688-2.248.336-.273.619-.49.627-.481.01.009-.07.543-.176 1.184-.757 4.47-1.15 8.612-1.27 13.29-.07 2.703-.017 4.527.15 5.176.12.459.487 1.374.602 1.511.04.044.23.172.425.287.371.221.866.53 2.72 1.705.618.393 1.304.821 1.52.949l.394.234.15-.172c.08-.093.212-.269.292-.393l.142-.221-.022-.486c-.045-.963-.018-5.839.035-6.824.239-4.297.615-7.636 1.38-12.168.769-4.571 1.94-9.858 3.201-14.456.261-.958.274-1.033.208-1.113-.102-.115-.743-.53-1.64-1.06-.425-.252-1.486-.892-2.358-1.422-.87-.535-1.61-.98-1.645-.99-.04-.017-.123.089-.243.3ZM76.673 81.167l-1.137 3.3.385.26c.464.322.703.516 1.212.99.57.53.636.498.49-.23-.088-.451-.053-.849.12-1.36.283-.858.831-1.401 1.729-1.72.517-.18 1.495-.33 1.495-.229 0 .018-.08.279-.182.588-.203.631-.265 1.117-.172 1.4.146.45.606.963 1.503 1.691l.504.411.314-.017c.173-.014.376-.058.465-.102.084-.044.353-.287.597-.543l.437-.46.177.204c.093.114.292.3.438.415.27.203.96.583 1.066.583.03 0 .561-.672 1.18-1.489l1.124-1.488.03.45c.023.274.062.508.107.597.04.075.402.472.804.878l.73.738.26-.23c.328-.282.801-.839 1.067-1.245.106-.172.371-.658.583-1.082.213-.424.575-1.109.805-1.515.234-.407.411-.751.394-.769-.014-.013-.08 0-.15.036-.129.066-1.836 1.744-2.583 2.544l-.46.494-.203-.132-.204-.133.235-.914c.331-1.276.415-1.515 1.052-2.897l.402-.88-.398-.366c-.216-.203-.482-.45-.592-.543l-.2-.172-.295.468c-.164.26-.323.508-.359.556-.057.075-.084.067-.588-.185-.787-.389-1.057-.473-1.587-.473-.394 0-.469.013-.699.128-.486.234-.99.782-1.517 1.648-.659 1.082-1.079 2.226-1.079 2.941 0 .181-.013.195-.389.5-.446.362-.614.459-.805.459-.212 0-.53-.203-.53-.34 0-.031.402-.954.889-2.054.49-1.1.96-2.156 1.039-2.345l.146-.34-.363-.371c-.477-.482-.866-.685-1.203-.619-.3.053-.468.265-.88 1.096-.318.649-.424.821-.64 1.042-.456.464-1.084.671-1.76.574-.182-.022-.337-.044-.346-.044-.008 0 .045-.194.115-.433.164-.534.261-.98.261-1.192a.95.95 0 0 0-.336-.667c-.141-.115-1.269-.711-1.344-.711-.013 0-.53 1.484-1.154 3.299Zm12.324-.703a3.495 3.495 0 0 1-.66 1.626c-.397.521-.963.998-2.148 1.806l-.637.438.027-.243c.08-.667.424-1.683.765-2.257.31-.521.866-1.074 1.3-1.29.429-.212.698-.283 1.079-.287l.305-.005-.031.213ZM108.759 88.887c-2.211.362-4.754 2.005-6.695 4.329-2.118 2.54-3.524 5.23-4.223 8.091-.633 2.588-.672 5.517-.11 8.45.074.375.18.958.238 1.294.181.998.495 1.612 1.159 2.243.663.632 1.423 1.056 3.175 1.776.561.23 1.251.521 1.538.645 1.981.861 3.892.883 5.59.07.982-.468 1.658-1.029 2.795-2.31 2.264-2.557 3.674-4.655 4.625-6.881.707-1.647 1.552-5.11 1.817-7.433.089-.764.102-2.156.023-2.699-.354-2.522-1.716-4.227-5.037-6.303-1.128-.706-1.866-1.033-2.751-1.228-.473-.101-1.636-.123-2.144-.044Zm3.612 4.408c.385.186.761.557.947.923.203.402.314 1.091.349 2.156a25.569 25.569 0 0 1-.309 4.712c-.699 4.157-2.693 7.434-6.094 9.987-.929.698-1.592 1.06-2.237 1.228-1.009.256-1.601-.393-1.946-2.134-.195-.967-.274-1.753-.301-3.061-.066-3.18.332-5.308 1.402-7.486 1.083-2.204 2.874-4.139 5.328-5.764.898-.596 1.349-.755 2.061-.737.438.008.487.017.8.176ZM73.847 89.245c-.61.163-1.172.53-1.6 1.056-.151.18-1.53 1.387-3.795 3.317a558.83 558.83 0 0 0-3.643 3.114c-.084.079-.084.084 0 .269.132.296.482.808.69 1.011.265.261.605.411.862.38.287-.03.552-.234 1.52-1.17.74-.711 2.384-2.248 2.68-2.5l.098-.08-.035.124c-.053.172-6.112 19.191-6.138 19.257-.027.066.76.694 1.357 1.091 1.31.861 2.3 1.095 3.043.72.26-.132.438-.331.619-.702.203-.42.323-.839.96-3.344a315.11 315.11 0 0 1 3.581-12.742 95.246 95.246 0 0 1 2.596-7.235c.398-.994.393-.95.084-1.43a2.81 2.81 0 0 0-1.574-1.14c-.328-.084-.982-.084-1.305.004ZM86.972 89.488c-1.384.168-3.158.958-4.648 2.063-.698.516-1.15.914-1.822 1.603-2.9 2.981-4.745 6.43-5.434 10.154-.23 1.259-.27 1.753-.27 3.533.004 1.878.013 2.032.398 4.647.212 1.449 1.19 2.509 3.228 3.502 2.887 1.409 3.325 1.595 4.267 1.794.615.132 1.853.145 2.441.026 1.04-.208 2.039-.698 2.91-1.422.751-.627 2.71-2.721 3.648-3.9 1.322-1.665 2.366-3.423 3.02-5.097.504-1.281 1.353-4.311 1.619-5.768.185-1.025.26-1.877.234-2.704-.035-1.179-.212-1.916-.672-2.848-.725-1.462-2.034-2.76-4.378-4.333-1-.671-1.72-.994-2.653-1.188-.425-.088-1.415-.12-1.888-.062ZM90 93.878c.375.097.592.225.88.508.548.552.73 1.263.68 2.672-.079 2.13-.282 3.759-.672 5.3-.747 2.964-2.091 5.345-4.156 7.354-1.424 1.387-3.224 2.615-4.33 2.96-.38.119-.862.132-1.092.035-.384-.168-.711-.68-.893-1.418-.212-.839-.27-1.515-.27-3.189 0-1.612.05-2.323.248-3.555.646-4.059 2.702-7.129 6.416-9.585 1.544-1.02 2.362-1.298 3.189-1.082ZM121.888 106.064c-1.239.278-2.645 1.837-3.224 3.578-.323.967-.371 2.235-.142 3.414.173.861.27.963 1.446 1.457.721.305.942.367 1.323.367.689 0 1.039-.203 1.729-1.007.888-1.029 1.428-1.974 1.68-2.924.548-2.098.5-2.977-.208-3.714-.398-.416-1.194-.963-1.627-1.113a1.924 1.924 0 0 0-.977-.058Z"/></g><defs><clipPath id="a"><path fill="#fff" d="M0 0h140v117H0z"/></clipPath></defs></svg>